<?xml version="1.0" standalone="no"?><!DOCTYPE svg PUBLIC "-//W3C//DTD SVG 1.1//EN" "http://www.w3.org/Graphics/SVG/1.1/DTD/svg11.dtd"><svg t="1582629329141" class="icon" viewBox="0 0 1024 1024" version="1.1" xmlns="http://www.w3.org/2000/svg" p-id="7535" xmlns:xlink="http://www.w3.org/1999/xlink" width="200" height="200"><defs><style type="text/css"></style></defs><path d="M733.866667 938.666667H290.133333C200.533333 938.666667 128 866.133333 128 776.533333V247.466667C128 157.866667 200.533333 85.333333 290.133333 85.333333h443.733334C823.466667 85.333333 896 157.866667 896 247.466667v524.8c0 93.866667-72.533333 166.4-162.133333 166.4zM290.133333 149.333333c-55.466667 0-98.133333 42.666667-98.133333 98.133334v524.8c0 55.466667 42.666667 98.133333 98.133333 98.133333h443.733334c55.466667 0 98.133333-42.666667 98.133333-98.133333V247.466667c0-55.466667-42.666667-98.133333-98.133333-98.133334H290.133333z" p-id="7536"></path><path d="M712.533333 418.133333H311.466667c-17.066667 0-34.133333-12.8-34.133334-34.133333 0-17.066667 12.8-34.133333 34.133334-34.133333h405.333333c17.066667 0 34.133333 12.8 34.133333 34.133333-4.266667 21.333333-21.333333 34.133333-38.4 34.133333zM576 601.6H302.933333c-12.8 0-25.6-12.8-25.6-25.6v-12.8c0-12.8 12.8-25.6 25.6-25.6h273.066667c12.8 0 25.6 12.8 25.6 25.6v12.8c0 12.8-12.8 25.6-25.6 25.6z" p-id="7537"></path></svg>